<?xml version="1.0" encoding="iso-8859-1"?>
<!-- Uploaded to: SVG Repo, www.svgrepo.com, Generator: SVG Repo Mixer Tools -->
<svg height="800px" width="800px" version="1.1" id="Layer_1" xmlns="http://www.w3.org/2000/svg" xmlns:xlink="http://www.w3.org/1999/xlink" 
	 viewBox="0 0 392.533 392.533" xml:space="preserve">
<path style="fill:#FFFFFF;" d="M342.174,225.265c-5.301-2.327-7.887-10.02-4.461-15.386c9.762-16.097,9.956-36.137,0.646-52.364
	c-12.8-22.432-40.598-31.806-64.453-22.044c-6.594,2.392-12.347-0.84-14.481-6.465c-12.412-38.4-56.566-69.107-104.21-56.889
	c-44.865,10.731-74.214,54.949-66.715,100.525c1.034,5.947-3.038,11.507-8.986,12.541c-18.877,3.168-34.78,13.705-45.123,28.251
	h36.396c6.012,0,10.925,4.848,10.925,10.925c0,6.012-4.848,10.925-10.925,10.925h-46.61c-1.552,5.818-2.392,11.895-2.392,18.23
	c0,1.228,0.129,2.392,0.129,3.556h21.657c6.012,0,10.925,4.848,10.925,10.925c0,6.077-4.848,10.925-10.925,10.925H26.634
	c10.214,25.729,35.232,44.024,64.517,44.024h227.943c28.444,0,51.523-23.079,51.523-51.523
	C370.747,251.77,359.758,234.122,342.174,225.265z"/>
<path style="fill:#56ACE0;" d="M332.347,244.853L332.347,244.853c-17.067-8.533-23.143-29.802-13.317-46.093v-0.065
	c5.624-9.244,5.818-20.945,0.388-30.319c-5.301-9.18-15.192-14.933-25.859-14.933c-3.879,0-7.628,0.776-11.313,2.263l-0.065,0.065
	c-17.325,7.176-37.107-1.745-43.313-19.394l-0.065-0.129c-9.244-26.764-34.651-44.671-62.901-44.671
	c-5.236,0-10.537,0.646-15.709,1.875c-33.875,8.145-55.919,41.309-50.23,75.701l0,0c2.974,17.778-9.051,34.586-26.828,37.56l0,0
	c-22.949,3.879-39.628,23.596-39.628,46.869c0,26.182,22.109,47.58,48.291,47.58h226.78c15.903,0,29.414-12.283,30.19-28.186
	C349.414,261.079,343.014,250.154,332.347,244.853z"/>
<path style="fill:#194F82;" d="M361.374,211.366c8.663-20.881,7.37-44.8-4.073-64.776c-16.485-28.638-49.972-42.408-81.196-34.715
	c-21.786-47.451-74.085-73.438-125.931-60.962C97.552,63.52,62.19,112.91,65.875,165.984C27.087,177.168,0,212.465,0,253.58
	c0,50.295,40.986,91.151,91.152,91.151h227.943c40.469,0,73.438-32.905,73.438-73.438
	C392.533,247.18,380.768,224.942,361.374,211.366z M319.16,322.946H91.152c-29.285,0-54.432-18.295-64.517-44.024h16.937
	c6.012,0,10.925-4.848,10.925-10.925c0-6.012-4.848-10.925-10.925-10.925H21.915c-0.065-1.164-0.129-2.392-0.129-3.556
	c0-6.271,0.84-12.347,2.392-18.23h46.675c6.012,0,10.925-4.848,10.925-10.925c0-6.012-4.848-10.925-10.925-10.925H34.457
	c10.343-14.61,26.246-25.083,45.123-28.251c5.947-1.034,9.891-6.594,8.986-12.541c-7.564-45.511,21.721-89.6,66.651-100.461
	c47.774-12.218,91.798,18.489,104.21,56.889c2.069,5.624,7.952,8.857,14.481,6.465c23.855-9.891,51.523-0.388,64.453,22.044
	c9.374,16.226,9.115,36.331-0.646,52.364c-3.426,5.301-0.905,13.059,4.461,15.386c17.648,8.792,28.509,26.505,28.509,46.028
	C370.747,299.802,347.539,322.946,319.16,322.946z"/>
<path style="fill:#FFFFFF;" d="M222.061,243.883c-6.012,0-10.925-4.848-10.925-10.925v-46.352h-29.737v46.352
	c0,6.012-4.848,10.925-10.925,10.925h-2.909l28.638,30.449l28.638-30.449H222.061z"/>
<path style="fill:#194F82;" d="M250.311,222.097h-17.325v-46.352c0-6.012-4.848-10.925-10.925-10.925h-51.523
	c-6.012,0-10.925,4.848-10.925,10.925v46.352h-17.325c-9.568,0-14.545,11.442-7.952,18.36l54.044,57.277
	c4.331,4.59,11.572,4.59,15.838,0l53.915-57.277C264.727,233.54,259.814,222.097,250.311,222.097z M167.628,243.883h2.909
	c6.012,0,10.925-4.848,10.925-10.925v-46.352H211.2v46.352c0,6.012,4.848,10.925,10.925,10.925h2.909l-28.768,30.449
	L167.628,243.883z"/>
</svg>